<svg id="Layer_3" data-name="Layer 3" xmlns="http://www.w3.org/2000/svg" viewBox="0 0 265.46 265.46"><defs><style>.cls-1{fill:#231f20;}.cls-1,.cls-2,.cls-4,.cls-5,.cls-6{stroke:#fff;}.cls-1,.cls-2,.cls-3,.cls-4,.cls-5,.cls-6{stroke-miterlimit:10;}.cls-1,.cls-4,.cls-5{stroke-width:2px;}.cls-2,.cls-3,.cls-4,.cls-6{fill:none;}.cls-2{stroke-width:7px;}.cls-3{stroke:#231f20;}.cls-3,.cls-6{stroke-width:5px;}.cls-5,.cls-7{fill:#fff;}</style></defs><title>Source buffet logo2 - black bg no text2</title><circle class="cls-1" cx="132.73" cy="132.73" r="131.73"/><polyline class="cls-2" points="134.5 39.5 134.5 160 196.5 160"/><path class="cls-3" d="M1930,534" transform="translate(-1729 -374)"/><line class="cls-2" x1="196.5" y1="96.87" x2="133" y2="96.87"/><line class="cls-4" x1="196.5" y1="98.06" x2="196.51" y2="161.46"/><path class="cls-5" d="M1925.9,472.31c9.06-.06,16.49,14.25,16.6,32s-7.14,32.11-16.2,32.16Z" transform="translate(-1729 -374)"/><path class="cls-5" d="M1926,412.1c9-.06,16.37,14.27,16.48,32s-7.09,32.15-16.09,32.2Z" transform="translate(-1729 -374)"/><line class="cls-6" x1="196.5" y1="39.5" x2="131.08" y2="39.5"/><path class="cls-7" d="M1804.9,467.4c-9.58-.06-17.45,15.5-17.56,34.76s7.55,34.91,17.13,35Z" transform="translate(-1729 -374)"/><line class="cls-2" x1="131.08" y1="159.63" x2="75.49" y2="159.63"/><path class="cls-7" d="M1860.08,536.33c9.6-.06,17.47,14.48,17.58,32.48s-7.58,32.63-17.18,32.69Z" transform="translate(-1729 -374)"/><line class="cls-2" x1="132.14" y1="224" x2="62.57" y2="224"/><line class="cls-2" x1="131.08" y1="96.87" x2="75.89" y2="96.87"/></svg>