<svg id="Layer_1" data-name="Layer 1" xmlns="http://www.w3.org/2000/svg" viewBox="0 0 265.46 265.46"><defs><style>.cls-1{fill:#fff;}.cls-1,.cls-5,.cls-7{stroke:#000;}.cls-1,.cls-2,.cls-3,.cls-4,.cls-5,.cls-7{stroke-miterlimit:10;}.cls-1,.cls-4,.cls-5{stroke-width:2px;}.cls-2,.cls-3,.cls-4,.cls-7{fill:none;}.cls-2,.cls-3,.cls-4{stroke:#231f20;}.cls-2,.cls-7{stroke-width:7px;}.cls-3{stroke-width:5px;}.cls-6{fill:#030203;}</style></defs><title>Source buffet logo2 - white bg no text2</title><circle class="cls-1" cx="132.73" cy="132.73" r="131.73"/><polyline class="cls-2" points="130.73 35.61 130.73 156.11 192.73 156.11"/><path class="cls-3" d="M1930,534" transform="translate(-1732.77 -377.89)"/><line class="cls-2" x1="192.73" y1="92.98" x2="129.23" y2="92.98"/><line class="cls-4" x1="192.73" y1="94.17" x2="192.74" y2="157.57"/><path class="cls-5" d="M1925.9,472.31c9.06-.06,16.49,14.25,16.6,32s-7.14,32.11-16.2,32.16Z" transform="translate(-1732.77 -377.89)"/><path class="cls-5" d="M1926,412.1c9-.06,16.37,14.27,16.48,32s-7.09,32.15-16.09,32.2Z" transform="translate(-1732.77 -377.89)"/><line class="cls-3" x1="192.73" y1="35.61" x2="127.31" y2="35.61"/><path class="cls-6" d="M1804.9,467.4c-9.58-.06-17.45,15.5-17.56,34.76s7.55,34.91,17.13,35Z" transform="translate(-1732.77 -377.89)"/><line class="cls-7" x1="127.31" y1="155.73" x2="71.72" y2="155.73"/><path class="cls-6" d="M1860.08,536.33c9.6-.06,17.47,14.48,17.58,32.48s-7.58,32.63-17.18,32.69Z" transform="translate(-1732.77 -377.89)"/><line class="cls-7" x1="128.37" y1="220.11" x2="58.8" y2="220.11"/><line class="cls-7" x1="127.31" y1="92.98" x2="72.12" y2="92.98"/></svg>